<?xml version="1.0" encoding="utf-8"?>
<!-- Generator: Adobe Illustrator 17.1.0, SVG Export Plug-In . SVG Version: 6.00 Build 0)  -->
<!DOCTYPE svg PUBLIC "-//W3C//DTD SVG 1.1//EN" "http://www.w3.org/Graphics/SVG/1.1/DTD/svg11.dtd">
<svg version="1.1" xmlns="http://www.w3.org/2000/svg" xmlns:xlink="http://www.w3.org/1999/xlink" x="0px" y="0px"
	 viewBox="0 0 375 380.5" enable-background="new 0 0 375 380.5" xml:space="preserve">
<g id="Background">
	<path id="Background_1_" fill="#0091EA" d="M335,380.5H40c-22.1,0-40-16.8-40-37.5V125c0-20.7,17.9-37.5,40-37.5h295
		c22.1,0,40,16.8,40,37.5v218C375,363.7,357.1,380.5,335,380.5z"/>
	<ellipse id="Top_Cover" fill="#0091EA" cx="187.5" cy="88" rx="104" ry="88"/>
</g>
<g id="Layer_5">
	<rect id="Center_Base_Gray_Block" x="42" y="204" fill="#9E9E9E" width="291" height="136"/>
	<rect id="Center_White_Block" x="105.5" y="204" fill="#EEEEEE" width="164" height="60"/>
	<rect id="Left_Vertical_Bar" x="41.5" y="158" fill="#424242" width="42" height="182"/>
	<rect id="Right_Vertical_Bar" x="291.5" y="158" fill="#424242" width="42" height="182"/>
	<rect id="Top_Horizontal_Bar" x="62.5" y="158" fill="#424242" width="250" height="46"/>
	<rect id="Top_Gray_Bar" x="41.5" y="126" fill="#9E9E9E" width="292" height="32"/>
	<rect id="Top_Dark_Gray_Tip" x="125" y="67.5" fill="#424242" width="125" height="115"/>
	<rect id="Top_Gray_Tip" x="146" y="67.5" fill="#9E9E9E" width="83" height="39"/>
</g>
<g id="Wires">
	<rect x="83.5" y="290" fill="#F44336" width="26" height="50"/>
	<rect x="109.5" y="290" fill="#4CAF50" width="26" height="50"/>
	<rect x="135.5" y="290" fill="#2979FF" width="26" height="50"/>
	<rect x="161.5" y="290" fill="#FFEB3B" width="26" height="50"/>
	<rect x="187.5" y="290" fill="#76FF03" width="26" height="50"/>
	<rect x="213.5" y="290" fill="#FF9800" width="26" height="50"/>
	<rect x="239.5" y="290" fill="#00E5FF" width="26" height="50"/>
	<rect x="265.5" y="290" fill="#FF4081" width="26" height="50"/>
</g>
<g id="Guides" display="none">
</g>
</svg>
