<svg xmlns="http://www.w3.org/2000/svg" version="1.1" x="0" y="0" viewBox="0 0 846.8 380.6" enable-background="new 0 0 846.8 380.6" xml:space="preserve"><path fill="#0091EA" d="M335 380.5H40c-22.1 0-40-16.8-40-37.5V125c0-20.7 17.9-37.5 40-37.5h295c22.1 0 40 16.8 40 37.5v218C375 363.7 357.1 380.5 335 380.5z"/><ellipse fill="#0091EA" cx="187.5" cy="88" rx="104" ry="88"/><rect x="42" y="204" fill="#9E9E9E" width="291" height="136"/><rect x="105.5" y="204" fill="#EEEEEE" width="164" height="60"/><rect x="41.5" y="158" fill="#424242" width="42" height="182"/><rect x="291.5" y="158" fill="#424242" width="42" height="182"/><rect x="62.5" y="158" fill="#424242" width="250" height="46"/><rect x="41.5" y="126" fill="#9E9E9E" width="292" height="32"/><rect x="125" y="67.5" fill="#424242" width="125" height="115"/><rect x="146" y="67.5" fill="#9E9E9E" width="83" height="39"/><rect x="83.5" y="290" fill="#F44336" width="26" height="50"/><rect x="109.5" y="290" fill="#4CAF50" width="26" height="50"/><rect x="135.5" y="290" fill="#2979FF" width="26" height="50"/><rect x="161.5" y="290" fill="#FFEB3B" width="26" height="50"/><rect x="187.5" y="290" fill="#76FF03" width="26" height="50"/><rect x="213.5" y="290" fill="#FF9800" width="26" height="50"/><rect x="239.5" y="290" fill="#00E5FF" width="26" height="50"/><rect x="265.5" y="290" fill="#FF4081" width="26" height="50"/><g display="none"><text transform="matrix(1 0 0 1 397.5833 378.6869)" display="inline" font-family="'Roboto-Bold'" font-size="179.9">C</text><text transform="matrix(1 0 0 1 517.4818 378.6869)" display="inline" font-family="'Roboto-Bold'" font-size="179.9">O</text><text transform="matrix(0.9721 0 0 1 637.8782 380.6127)" display="inline" font-family="'Roboto-Bold'" font-size="185.1">R</text><text transform="matrix(0.9738 0 0 1 749.7366 380.3451)" display="inline" font-family="'Roboto-Bold'" font-size="184.8">E</text></g><path d="M509.4 336.1c-1 13.8-6.1 24.6-15.2 32.5 -9.2 7.9-21.2 11.9-36.2 11.9 -16.4 0-29.3-5.5-38.7-16.6 -9.4-11-14.1-26.2-14.1-45.5v-7.8c0-12.3 2.2-23.1 6.5-32.5 4.3-9.4 10.5-16.6 18.6-21.6 8.1-5 17.4-7.5 28.1-7.5 14.8 0 26.6 4 35.7 11.9 9 7.9 14.2 19 15.6 33.3h-26.4c-0.6-8.3-2.9-14.2-6.9-18 -4-3.7-10-5.6-18.1-5.6 -8.8 0-15.4 3.1-19.7 9.4 -4.4 6.3-6.6 16.1-6.7 29.3v9.7c0 13.8 2.1 23.9 6.3 30.3s10.8 9.6 19.8 9.6c8.1 0 14.2-1.9 18.2-5.6 4-3.7 6.3-9.5 6.9-17.3H509.4z"/><path d="M634 317.6c0 12.6-2.2 23.6-6.7 33.1s-10.8 16.8-19.1 22c-8.3 5.2-17.8 7.7-28.5 7.7 -10.6 0-20.1-2.5-28.4-7.6 -8.3-5.1-14.8-12.4-19.3-21.8 -4.6-9.5-6.9-20.3-6.9-32.6V312c0-12.6 2.3-23.7 6.8-33.3 4.5-9.6 11-16.9 19.2-22.1 8.3-5.1 17.8-7.7 28.4-7.7 10.7 0 20.1 2.6 28.4 7.7 8.3 5.1 14.7 12.5 19.2 22.1 4.5 9.6 6.8 20.6 6.8 33.2V317.6zM607.3 311.8c0-13.4-2.4-23.6-7.2-30.6 -4.8-7-11.7-10.5-20.6-10.5 -8.8 0-15.7 3.4-20.5 10.3 -4.8 6.9-7.2 17-7.3 30.3v6.2c0 13.1 2.4 23.2 7.2 30.4 4.8 7.2 11.7 10.8 20.7 10.8 8.8 0 15.6-3.5 20.4-10.4s7.1-17.1 7.2-30.4V311.8z"/><path d="M696.7 332.4h-21v48.2h-26.4V249h47.5c15.1 0 26.8 3.5 35 10.4 8.2 6.9 12.3 16.7 12.3 29.4 0 9-1.9 16.5-5.7 22.5 -3.8 6-9.5 10.8-17.2 14.3l27.7 53.8v1.3h-28.3L696.7 332.4zM675.7 310.5h21.3c6.6 0 11.7-1.7 15.4-5.2 3.6-3.5 5.4-8.2 5.4-14.3 0-6.2-1.7-11.1-5.1-14.6 -3.4-3.6-8.7-5.3-15.8-5.3h-21.2V310.5z"/><path d="M838.1 323.2h-50.6v35.4h59.4v21.7h-85.7V249h85.6v21.9h-59.2v31.3h50.6V323.2z"/><g display="none"><text transform="matrix(1.088 0 0 1 397.6002 227.5)" display="inline" font-family="'Roboto-Light'" font-size="137">LAN</text></g><path d="M420 220.5h52.3v7H411v-97.4h9V220.5zM548.1 200.1H500l-10.9 27.4h-9.4l40.1-97.4h8.5l40.1 97.4h-9.3L548.1 200.1zM502.8 193.2h42.5l-21.3-53L502.8 193.2zM662.9 227.5h-9L593 144.1v83.4h-9v-97.4h9l61 83.4v-83.4h8.9V227.5z"/><g display="none"/></svg>